<?xml version="1.0" encoding="utf-8"?>
<!-- Generator: Adobe Illustrator 27.1.1, SVG Export Plug-In . SVG Version: 6.00 Build 0)  -->
<svg version="1.1" id="Layer_1" xmlns="http://www.w3.org/2000/svg" xmlns:xlink="http://www.w3.org/1999/xlink" x="0px" y="0px"
	 viewBox="0 0 150 150" style="enable-background:new 0 0 150 150;" xml:space="preserve">
<g>
	<circle cx="75" cy="99.5" r="4.6"/>
	<circle cx="75" cy="50.5" r="4.6"/>
	<path d="M140.3,9.7c-2.4-2.4-5.6-3.7-9-3.7H82.9c-3.4,0-6.6,1.3-9,3.7L9.7,73.9c-2.4,2.4-3.7,5.6-3.7,9c0,3.4,1.3,6.6,3.7,9
		l48.4,48.4c2.4,2.4,5.6,3.7,9,3.7c3.4,0,6.6-1.3,9-3.7l64.2-64.2c2.4-2.4,3.7-5.6,3.7-9V18.7C144,15.3,142.7,12.1,140.3,9.7
		L140.3,9.7z M75,37.8c7,0,12.7,5.7,12.7,12.7S82,63.2,75,63.2c-7,0-12.7-5.7-12.7-12.7S68,37.8,75,37.8z M75,112.2
		c-7,0-12.7-5.7-12.7-12.7S68,86.8,75,86.8s12.7,5.7,12.7,12.7S82,112.2,75,112.2z M101,79H49c-2.2,0-4-1.8-4-4s1.8-4,4-4h52
		c2.2,0,4,1.8,4,4S103.2,79,101,79z M118.3,35.7c-2.2,0-4-1.8-4-4s1.8-4,4-4s4,1.8,4,4S120.5,35.7,118.3,35.7z"/>
</g>
</svg>
