<?xml version="1.0" encoding="utf-8"?>
<!-- Generator: Adobe Illustrator 27.1.1, SVG Export Plug-In . SVG Version: 6.00 Build 0)  -->
<svg version="1.1" id="Layer_1" xmlns="http://www.w3.org/2000/svg" xmlns:xlink="http://www.w3.org/1999/xlink" x="0px" y="0px"
	 width="1000px" height="1000px" viewBox="0 0 1000 1000" style="enable-background:new 0 0 1000 1000;" xml:space="preserve">
<g>
	<g>
		<g id="Zoom_2_">
			<g>
				<path d="M975.9,888.8L754,675.6c54.5-67.5,87.1-152.2,87.1-244.2c0-220.1-186.4-399.2-415.6-399.2C196.4,32.3,10,211.3,10,431.4
					s186.4,399.2,415.5,399.2c98.8,0,189.7-33.3,261.1-88.9l221.2,212.5c9.4,9,21.7,13.6,34,13.6c12.4,0,24.7-4.5,34.1-13.6
					C994.7,936.1,994.7,906.8,975.9,888.8z M106.3,431.4c0-169.1,143.2-306.6,319.2-306.6s319.2,137.5,319.2,306.6
					S601.5,738.1,425.5,738.1S106.3,600.5,106.3,431.4z"/>
			</g>
		</g>
	</g>
</g>
</svg>
