<?xml version="1.0" encoding="UTF-8"?><svg id="Layer_1" xmlns="http://www.w3.org/2000/svg" viewBox="0 0 200 200"><defs><style>.cls-1{fill:#7d5dee;}</style></defs><path class="cls-1" d="m80.81,98.57c5.24-6.29,10.2-12.44,15.37-18.41,18.96-21.91,39.56-42.1,63.06-59.2q8.19-5.96,18.3-5.95c3,0,6,0,9.01,0,1.9,0,3.27.84,3.98,2.63.69,1.74.17,3.23-1.14,4.44-31.93,29.47-56.63,64.71-80.29,100.73-8.07,12.28-15.55,24.95-23.25,37.47-2.45,3.98-5.69,4.05-8.12.1-14.41-23.38-30.63-45.53-46.71-67.76-.4-.55-.82-1.09-1.2-1.65-1.5-2.2-1.38-3.95.51-5.84,3.32-3.33,6.67-6.63,10.03-9.92,2.06-2.02,3.76-2.16,6.2-.46,10.13,7.04,20.24,14.1,30.36,21.15,1.28.89,2.57,1.76,3.9,2.67Z"/><path class="cls-1" d="m150.8,184.99c-1.77.05-3.26-1.4-3.28-3.17-.02-1.75,1.48-3.26,3.22-3.25,1.65.01,3.12,1.43,3.2,3.08.08,1.72-1.4,3.28-3.14,3.33Z"/><path class="cls-1" d="m141.35,181.82c-.01,1.77-1.51,3.22-3.27,3.18-1.75-.04-3.22-1.6-3.15-3.32.07-1.66,1.54-3.08,3.19-3.09,1.74-.02,3.24,1.49,3.23,3.24Z"/><path class="cls-1" d="m153.94,106.59c-.06,1.73-1.66,3.22-3.36,3.13-1.75-.09-3.17-1.68-3.06-3.41.11-1.69,1.55-3.03,3.24-3.01,1.74.02,3.24,1.57,3.18,3.29Z"/><path class="cls-1" d="m12.41,103.29c1.76,0,3.24,1.51,3.2,3.26-.03,1.73-1.61,3.23-3.32,3.16-1.65-.07-3.09-1.54-3.11-3.18-.02-1.73,1.49-3.25,3.23-3.24Z"/><path class="cls-1" d="m153.94,93.91c.02,1.74-1.49,3.24-3.24,3.22-1.78-.01-3.22-1.49-3.18-3.26.04-1.67,1.45-3.09,3.12-3.14,1.73-.05,3.29,1.45,3.31,3.18Z"/><path class="cls-1" d="m15.61,93.91c.02,1.76-1.45,3.24-3.22,3.23-1.75,0-3.25-1.52-3.21-3.25.03-1.65,1.47-3.1,3.13-3.15,1.73-.05,3.28,1.43,3.31,3.17Z"/><path class="cls-1" d="m103.64,181.77c.01,1.74-1.49,3.24-3.24,3.23-1.75-.01-3.24-1.54-3.2-3.27.04-1.65,1.49-3.1,3.14-3.14,1.72-.05,3.28,1.46,3.3,3.19Z"/><path class="cls-1" d="m65.93,181.89c-.06,1.73-1.64,3.19-3.37,3.11-1.76-.08-3.18-1.64-3.07-3.39.1-1.66,1.59-3.05,3.25-3.02,1.73.02,3.25,1.59,3.19,3.3Z"/><path class="cls-1" d="m12.3,178.58c1.72-.06,3.29,1.43,3.32,3.16.03,1.67-1.32,3.13-3.01,3.25-1.73.12-3.33-1.29-3.43-3.04-.1-1.71,1.38-3.31,3.11-3.37Z"/><path class="cls-1" d="m153.94,144.11c.02,1.72-1.52,3.26-3.24,3.25-1.74-.01-3.22-1.54-3.18-3.29.04-1.67,1.45-3.1,3.12-3.15,1.71-.05,3.29,1.46,3.31,3.18Z"/><path class="cls-1" d="m50.03,184.99c-1.75-.05-3.2-1.62-3.12-3.34.09-1.67,1.55-3.07,3.21-3.07,1.75,0,3.22,1.5,3.19,3.26-.03,1.78-1.52,3.2-3.29,3.15Z"/><path class="cls-1" d="m12.49,65.67c1.78.05,3.2,1.55,3.12,3.31-.07,1.66-1.53,3.05-3.2,3.06-1.74.01-3.26-1.51-3.24-3.24.02-1.76,1.53-3.18,3.31-3.14Z"/><path class="cls-1" d="m12.37,153.53c1.8-.02,3.25,1.41,3.25,3.18,0,1.75-1.52,3.21-3.28,3.17-1.68-.04-3.1-1.44-3.15-3.11-.05-1.75,1.4-3.23,3.19-3.25Z"/><path class="cls-1" d="m12.49,53.08c1.74.05,3.21,1.63,3.13,3.35-.08,1.74-1.67,3.18-3.4,3.07-1.65-.1-3.06-1.6-3.04-3.24.02-1.72,1.59-3.24,3.31-3.18Z"/><path class="cls-1" d="m91.02,43.68c.03,1.83-1.38,3.25-3.21,3.23-1.74-.02-3.12-1.37-3.15-3.1-.04-1.82,1.4-3.26,3.22-3.25,1.73.02,3.1,1.37,3.13,3.11Z"/><path class="cls-1" d="m28.19,181.85c-.03,1.74-1.59,3.21-3.32,3.15-1.77-.06-3.16-1.58-3.08-3.36.08-1.69,1.51-3.06,3.19-3.06,1.74,0,3.25,1.54,3.21,3.27Z"/><path class="cls-1" d="m15.62,131.62c-.02,1.77-1.49,3.18-3.29,3.14-1.78-.04-3.22-1.54-3.15-3.29.07-1.67,1.5-3.05,3.19-3.06,1.77-.02,3.26,1.46,3.25,3.2Z"/><path class="cls-1" d="m15.61,144.1c.02,1.74-1.49,3.26-3.22,3.26-1.72,0-3.25-1.56-3.21-3.28.04-1.65,1.48-3.1,3.13-3.15,1.73-.05,3.28,1.43,3.3,3.18Z"/><path class="cls-1" d="m12.49,84.55c-1.8.04-3.29-1.35-3.32-3.11-.02-1.67,1.34-3.1,3.04-3.19,1.81-.09,3.32,1.25,3.4,3.01.08,1.76-1.33,3.25-3.12,3.29Z"/><path class="cls-1" d="m116.2,181.85c-.03,1.75-1.57,3.21-3.31,3.15-1.77-.06-3.15-1.57-3.07-3.36.08-1.69,1.5-3.06,3.18-3.06,1.74,0,3.24,1.53,3.2,3.27Z"/><path class="cls-1" d="m103.64,43.69c.03,1.76-1.41,3.21-3.21,3.22-1.79,0-3.26-1.44-3.23-3.2.02-1.67,1.42-3.07,3.11-3.13,1.77-.06,3.3,1.37,3.33,3.11Z"/><path class="cls-1" d="m153.94,131.54c.04,1.75-1.43,3.22-3.21,3.23-1.8,0-3.23-1.43-3.21-3.21.02-1.68,1.41-3.09,3.09-3.15,1.75-.06,3.3,1.39,3.33,3.13Z"/><path class="cls-1" d="m153.95,156.64c.03,1.72-1.48,3.24-3.23,3.25-1.68,0-3.12-1.36-3.2-3.04-.09-1.78,1.31-3.27,3.1-3.32,1.79-.05,3.3,1.36,3.33,3.11Z"/><path class="cls-1" d="m15.62,169.18c.04,1.77-1.39,3.21-3.2,3.22-1.8.01-3.26-1.43-3.24-3.18.02-1.67,1.41-3.07,3.11-3.12,1.81-.06,3.3,1.32,3.33,3.09Z"/><path class="cls-1" d="m12.47,40.58c1.79.04,3.22,1.54,3.15,3.29-.07,1.77-1.58,3.13-3.38,3.04-1.7-.08-3.07-1.5-3.06-3.17,0-1.74,1.52-3.19,3.29-3.16Z"/><path class="cls-1" d="m65.93,43.78c-.03,1.76-1.52,3.17-3.32,3.12-1.8-.04-3.2-1.53-3.12-3.3.07-1.68,1.49-3.02,3.19-3.03,1.77-.01,3.27,1.47,3.25,3.21Z"/><path class="cls-1" d="m153.95,169.22c.02,1.77-1.44,3.19-3.25,3.18-1.81-.01-3.23-1.44-3.19-3.22.04-1.69,1.42-3.05,3.12-3.09,1.79-.04,3.29,1.38,3.31,3.13Z"/><path class="cls-1" d="m116.21,43.8c-.03,1.77-1.52,3.16-3.32,3.11-1.8-.05-3.15-1.51-3.07-3.32.08-1.7,1.46-3.02,3.18-3.02,1.79,0,3.24,1.47,3.21,3.23Z"/><path class="cls-1" d="m24.94,46.91c-1.81-.02-3.2-1.45-3.16-3.25.04-1.7,1.41-3.06,3.12-3.09,1.78-.03,3.28,1.41,3.29,3.16.01,1.76-1.46,3.2-3.25,3.18Z"/><path class="cls-1" d="m153.94,119.13c-.06,1.76-1.57,3.14-3.36,3.07-1.78-.07-3.17-1.6-3.06-3.35.11-1.7,1.51-2.98,3.24-2.96,1.81.02,3.24,1.48,3.18,3.24Z"/><path class="cls-1" d="m15.62,119.04c0,1.75-1.48,3.19-3.27,3.16-1.7-.02-3.11-1.38-3.17-3.06-.06-1.75,1.38-3.23,3.17-3.25,1.81-.02,3.26,1.38,3.27,3.15Z"/><path class="cls-1" d="m87.89,178.57c1.76.03,3.17,1.52,3.13,3.31-.05,1.79-1.54,3.19-3.31,3.11-1.69-.08-3.03-1.49-3.04-3.19,0-1.76,1.48-3.26,3.22-3.23Z"/><path class="cls-1" d="m128.73,181.89c-.05,1.79-1.54,3.19-3.31,3.1-1.77-.09-3.11-1.59-3.01-3.4.09-1.7,1.53-3.05,3.21-3.02,1.77.03,3.16,1.51,3.11,3.32Z"/><path class="cls-1" d="m53.32,43.71c.02,1.79-1.4,3.21-3.21,3.2-1.79,0-3.24-1.46-3.2-3.23.04-1.69,1.41-3.06,3.12-3.11,1.79-.05,3.26,1.35,3.28,3.13Z"/><path class="cls-1" d="m37.58,185c-1.77.02-3.19-1.42-3.19-3.22,0-1.8,1.46-3.24,3.23-3.2,1.69.04,3.05,1.42,3.09,3.13.04,1.8-1.35,3.27-3.12,3.29Z"/><path class="cls-1" d="m78.44,181.79c0,1.79-1.46,3.24-3.22,3.21-1.77-.03-3.16-1.5-3.11-3.3.05-1.71,1.42-3.09,3.11-3.12,1.75-.03,3.22,1.44,3.22,3.22Z"/><path class="cls-1" d="m150.72,84.55c-1.8,0-3.23-1.44-3.2-3.21.03-1.7,1.39-3.05,3.11-3.09,1.81-.05,3.29,1.34,3.32,3.11.03,1.77-1.42,3.2-3.23,3.2Z"/><path class="cls-1" d="m78.45,43.82c-.04,1.82-1.52,3.18-3.35,3.09-1.74-.09-3.02-1.47-2.98-3.24.04-1.75,1.4-3.09,3.14-3.1,1.83-.01,3.24,1.43,3.2,3.25Z"/><path class="cls-1" d="m37.55,40.56c1.83,0,3.21,1.44,3.16,3.28-.05,1.74-1.41,3.07-3.16,3.07-1.83,0-3.21-1.42-3.16-3.27.05-1.76,1.4-3.08,3.15-3.08Z"/></svg>