<?xml version="1.0" encoding="utf-8"?>
<!-- Generator: Adobe Illustrator 27.4.0, SVG Export Plug-In . SVG Version: 6.00 Build 0)  -->
<svg version="1.1" id="Layer_1" xmlns="http://www.w3.org/2000/svg" xmlns:xlink="http://www.w3.org/1999/xlink" x="0px" y="0px"
	 viewBox="0 0 512 512" style="enable-background:new 0 0 512 512;" xml:space="preserve">
<style type="text/css">
	.st0{fill:#4AD5FF;}
	.st1{fill:#FFFFFF;}
</style>
<g>
	<path class="st0" d="M489.9,269.7c-1.1,8.5-1.9,17.1-3.5,25.6c-9.8,54-37.1,97.4-80.7,130.5c-32.3,24.6-69,38.7-109.3,43.4
		c-1.7,0.2-3.3,0.3-5,0.4c-4.3,0.1-7.4-2.3-7.8-6c-0.4-3.6,2.2-6.8,6.5-7.5c5-0.8,10-1.1,14.9-2c61.7-10.7,109.9-41.9,143.1-95.1
		c20.7-33.2,28.7-69.9,28-108.7c-1.1-54.4-22.6-99.8-61.7-137C382.3,82.7,344,63.7,299.8,57.5c-31.6-4.5-62.4-0.7-92.4,10.6
		C161.6,85.4,126,114.7,101.3,157c-2,3.3-3.4,6.5-0.4,10c3.7,4.2,9.4,3.5,12.4-1.8c8-13.9,17.3-26.9,28.7-38.1
		c41-40.6,90.4-59.9,148-55.3c83.8,6.6,150.5,66.3,167.5,148.3c20.7,99.8-45,198.5-145.6,218.5c-101.6,20.2-200.6-46.3-219.3-147.6
		c-1.6-8.6-2-17.5-3-26.2c-0.4-3.4,0.9-6,4.1-7.4c3.1-1.3,5.8-0.5,8.2,2c4.5,4.7,9.2,9.3,13.9,13.9c3.8,3.6,7.5,3.7,10.8,0.5
		c3.3-3.2,3.3-7.2-0.2-10.8c-12.6-12.7-25.3-25.4-38.1-38c-3.9-3.8-7.8-3.8-11.6-0.1c-12.8,12.6-25.5,25.3-38.1,38
		c-3.6,3.7-3.7,7.5-0.3,10.8c3.3,3.3,7.1,3.2,10.8-0.3c4.4-4.2,8.7-8.5,12.9-12.9c2.4-2.4,4.9-4.1,8.5-2.7c3.5,1.4,4.4,4.1,4.6,7.6
		c5.6,78.6,44,135.7,113.5,172.2c20.5,10.8,42.8,16.4,65.9,18.3c1.5,0.1,3,0.3,4.5,0.6c4.3,0.8,6.6,3.6,6.1,7.6
		c-0.4,3.8-3.6,6.4-7.9,5.8c-11.7-1.7-23.6-2.9-35.1-5.7C145.1,445.4,82,379.4,66,301.6c-1.4-7-2.5-14-3.9-21.8
		c-1.4,1.3-2.4,2.3-3.4,3.3c-11.8,11.2-28.8,7.6-35.1-7.4c-0.5-1.1-1-2.1-1.5-3.2c0-2.7,0-5.5,0-8.2c3.5-4.9,6.4-10.3,10.5-14.5
		c11.1-11.7,22.7-22.9,34.1-34.3c9.4-9.4,21.9-9.6,31.2-0.4c12.9,12.7,25.8,25.4,38.4,38.4c12.2,12.6,6.2,31.8-10.9,35.8
		c-5.9,1.4-11.1-0.1-16-3.5c-1.3-0.9-2.6-2-4.4-3.4c2.5,17,7.3,32.5,14.4,47.4c30.8,64.4,95.9,102.7,167.3,98.5
		c76.4-4.5,142.4-62.1,157.3-137.3c19.2-96.4-44.5-187.9-142.1-204.3c-67.4-11.3-139,21.9-174.1,80.7c-1.2,2-2.3,4-3.5,5.9
		c-6.6,10.3-18.2,13.2-28.6,7.1c-10.4-6.1-13.5-17.6-7.5-28.3c22.8-40.1,55.1-69.9,96.9-89.4c32.1-15,65.7-22.5,101.4-20.1
		c43.6,3,82.7,18.1,117.4,44.2c42.2,31.8,70.3,73.1,81.6,125.1c1.9,8.6,2.8,17.3,4.2,26C489.9,248.4,489.9,259.1,489.9,269.7z"/>
</g>
<g>
	<g>
		<path class="st0" d="M309.1,234c48.8-2.1,85.6,38.5,81.7,82.6c-4.1,45.9-43.1,76.9-88,70.6c-44.3-6.2-76.6-50.8-62.8-98.4
			c-7.1-0.8-14.4-1.1-21.5-2.6c-34.2-7.4-59.6-38.1-60.2-72.2c-0.7-36.6,22.4-67.8,57.1-76.9c2.2-0.6,5.2-0.8,6.9,0.2
			c1.8,1.1,3.7,4.3,3.3,6.1c-0.5,2.3-2.8,4.9-5,6c-5.9,3-12.6,4.6-18.3,7.9c-23.9,14-35.4,43.1-28.2,70.1
			c7.2,27.1,32.1,46.5,59.9,46.9c1.1,0,2.1-0.1,3.2,0c6.3,0.6,10.4-1.7,14.1-7.4c9.1-13.9,22.1-23.3,37.9-28.5c3.3-1.1,4.9-3,6-6
			c12.2-34.1-7-71.8-41.9-81.9c-0.9-0.3-1.8-0.4-2.6-0.7c-4.8-1.5-6.9-4.8-5.7-8.7c1.2-4.1,4.7-6.1,9.5-4.3
			c7.9,3,16.2,5.8,23.2,10.3c27.9,18.1,40.4,50.8,32.5,83C309.7,231.3,309.4,232.5,309.1,234z M250.6,311.1
			c0,34.7,28.5,63.3,63.3,63.3c34.8,0,63.4-28.4,63.5-63.1c0.1-34.9-28.5-63.5-63.5-63.5C279,247.9,250.6,276.3,250.6,311.1z"/>
	</g>
</g>
<path class="st1" d="M257.9,226c-0.3,9-4.5,15.6-12.7,19.4c-2.3,1.1-3.6,2.1-3.7,4.9c-0.2,3.7-2.6,5.7-6.3,5.9
	c-3.7,0.1-6.2-1.8-6.8-5.4c-0.4-2.5-1.5-3.4-3.9-4.1c-2.9-0.8-5.6-2.2-8.2-3.8c-3.6-2.2-4.5-6.2-2.6-9.4c1.8-3.1,5.4-3.7,9.2-2.4
	c4.1,1.4,8.3,2.7,12.6,3c4.5,0.3,8.1-3,8.5-6.7c0.5-4.5-2.8-5.9-6.1-7.3c-4.3-1.8-8.7-3.6-12.9-5.6c-7-3.3-10.6-9-10.5-16.7
	c0.1-8.1,3.1-14.7,10.1-19.3c1.6-1.1,3-3.1,3.6-4.9c1.2-3.4,3.3-5.5,6.9-5.4c3.4,0.1,5.4,2.1,6.5,5.4c0.5,1.5,1.9,3,3.3,4
	c1.9,1.5,4.3,2.3,6.1,3.8c3,2.5,3.4,5.8,1.2,9c-2,3-4.9,3.8-8.4,2c-2.2-1.1-4.4-2.1-6.7-2.7c-4.3-1-7.1,0.8-8.5,4.8
	c-1.4,4,0,6.6,3.9,8.3c5.6,2.4,11.1,5,16.4,7.9C254.8,213.9,258,219,257.9,226z"/>
<path class="st1" d="M192.6,357.3c-14.9,0-26.9-12-26.9-27c0-14.4,12.4-26.5,27.1-26.4c14.7,0,26.7,12.1,26.7,26.8
	C219.4,345.3,207.3,357.3,192.6,357.3z M205.7,330.7c0-7.3-6.1-13.2-13.5-13.2c-6.7,0.1-12.9,6.3-12.8,13
	c0.1,7.2,5.9,13.1,13.1,13.1C199.7,343.7,205.6,337.8,205.7,330.7z"/>
<path class="st1" d="M362.6,189c-1.6-1.3-4.3-2.5-5.2-4.5c-0.8-1.9-0.7-5.5,0.6-7c6-6.7,12.4-12.9,19-19.1c2.7-2.5,5.9-2.3,8.7,0.2
	c2.8,2.5,3.5,6,1.1,8.6c-6.5,7-13.4,13.6-20.3,20.3C365.8,188.2,364.5,188.3,362.6,189z"/>
<path class="st1" d="M336.5,161c0,2.3,0.1,4.5,0,6.8c-0.2,4-2.9,6.8-6.5,6.8c-3.8-0.1-6.6-2.2-6.9-5.9c-0.4-5.4-0.4-10.9,0-16.3
	c0.3-3.7,3-5.9,6.9-5.8c3.7,0.1,6.3,2.7,6.5,6.8C336.6,155.9,336.5,158.5,336.5,161z"/>
<path class="st1" d="M384.4,208.1c2.4,0,4.9-0.2,7.3,0c3.9,0.3,6.7,3.2,6.7,6.7c0,3.5-2.6,6.5-6.6,6.7c-5.1,0.2-10.3,0.2-15.4,0
	c-3.9-0.2-6.1-2.7-6.1-6.6c0-3.9,2.2-6.3,6-6.7C378.9,208,381.7,208.2,384.4,208.1C384.4,208.2,384.4,208.2,384.4,208.1z"/>
<path class="st1" d="M306.6,348.2c-4.2-2-8-3.4-11.5-5.5c-3.7-2.2-4.6-6.1-2.7-9.4c1.9-3.3,5.8-4.4,9.5-2.2c4.4,2.6,9,3.5,14,2.6
	c3.8-0.7,6.4-2.9,6.8-6.9c0.4-4-2.5-5.5-5.6-6.7c-4.5-1.9-9-3.7-13.4-5.8c-6.9-3.3-10.6-8.9-10.6-16.7c0-8.1,2.9-14.9,10.2-19.2
	c2.1-1.2,3.6-2.2,3.8-5c0.3-3.4,2.8-5.4,6.2-5.6c3.6-0.1,5.7,1.9,7,5.3c0.6,1.7,2.2,3.1,3.7,4.3c1.9,1.5,4.3,2.3,6.1,3.9
	c2.7,2.4,3,5.7,0.9,8.6c-2,2.9-4.8,4-8.3,2.2c-2.3-1.1-4.7-2.2-7.2-2.7c-4.5-0.8-7.1,1-8.2,5.1c-1.1,3.9,0.2,6.3,4,7.9
	c4.6,1.9,9.1,4.1,13.6,6.3c7,3.5,11.9,8.4,11.7,16.9c-0.2,8.7-4.2,15.1-11.8,19.1c-2.5,1.3-4.5,2.3-4.6,5.7
	c-0.1,3.4-2.8,5.4-6.2,5.5c-3.4,0.2-5.7-1.8-6.7-5.1C306.8,350.1,306.8,349,306.6,348.2z"/>
</svg>
