<?xml version="1.0" encoding="utf-8"?>
<!-- Generator: Adobe Illustrator 27.4.0, SVG Export Plug-In . SVG Version: 6.00 Build 0)  -->
<svg version="1.1" id="Layer_1" xmlns="http://www.w3.org/2000/svg" xmlns:xlink="http://www.w3.org/1999/xlink" x="0px" y="0px"
	 width="1495.7px" height="300px" viewBox="0 0 1495.7 300" style="enable-background:new 0 0 1495.7 300;" xml:space="preserve">
<style type="text/css">
	.st0{fill:url(#SVGID_1_);}
	.st1{fill:#7D5DEC;}
</style>
<g>
	<linearGradient id="SVGID_1_" gradientUnits="userSpaceOnUse" x1="7.6641" y1="151.0431" x2="243.9569" y2="151.0431">
		<stop  offset="2.755059e-07" style="stop-color:#00D5FF"/>
		<stop  offset="1" style="stop-color:#7D5DEC"/>
	</linearGradient>
	<path class="st0" d="M173.1,191.5c38.7-12.8,60.3-44,60.3-89.3c0-55-32.1-95-105.2-95H7.7v52.6H64v-0.2h65.1
		c35.6,0,47.5,18,47.5,42.7s-11.9,43.1-47.5,43.1H64v-0.2H7.7v149.8H64v-97.2h51.9l61.2,97.2H244L173.1,191.5z"/>
	<g>
		<path class="st1" d="M229.1,193.1c0-59.1,43.3-102.4,104.8-102.4c61.5,0,104,43.3,104,102.4v16.5H278.4
			c6.3,28.4,28,43.3,55.6,43.3c20.9,0,36.2-5.9,46.1-18.5h50c-14.6,37-50,61.1-96.1,61.1C272.5,295.5,229.1,252.2,229.1,193.1z
			 M388.3,172.2c-7.5-26-28.8-39-54.4-39c-26.4,0-46.9,13.4-54.4,39H388.3z"/>
		<path class="st1" d="M459.1,190.3V7.1h47.5v114.9c14-21.9,37.5-33.9,65.8-33.9c47.9,0,98.2,34.3,98.2,101.7
			c0,62.6-43.9,105.7-106.5,105.7C502.2,295.6,459.1,254.1,459.1,190.3z M622.7,191.9c0-34.7-23.5-59.4-58.3-59.4
			c-34.7,0-57.9,24.7-57.9,59.4s23.1,59.4,57.9,59.4C599.1,251.3,622.7,226.6,622.7,191.9z"/>
		<path class="st1" d="M683.7,194.1c0-62.5,43.8-105.5,106.3-105.5c61.7,0,104.7,41.8,104.7,105.1v96.7h-43.4v-38.6
			c-11.9,29.1-38.6,43.8-69.6,43.8C733.8,295.6,683.7,261.4,683.7,194.1z M847.3,192.1c0-34.6-23.1-59.3-57.7-59.3
			c-34.6,0-58.1,24.7-58.1,59.3s23.5,59.3,58.1,59.3C824.2,251.4,847.3,226.7,847.3,192.1z"/>
		<path class="st1" d="M916.9,210.2V7.9h50.3v73.9h107.7v45.6H967.2v82.8c0,27.9,14.4,38.9,35.1,38.9s35.1-10.6,35.1-38.9v-5.5h50.3
			v5.5c0,57.9-34.6,85.7-85.3,85.7C951.5,295.9,916.9,268,916.9,210.2z"/>
		<path class="st1" d="M1099.9,191.9c0-59.8,43.9-103.7,106.1-103.7c62.2,0,105.3,43.9,105.3,103.7v16.8h-161.6
			c6.4,28.7,28.3,43.9,56.3,43.9c21.1,0,36.7-6,46.7-18.8h50.7c-14.8,37.5-50.7,61.8-97.4,61.8
			C1143.8,295.6,1099.9,251.7,1099.9,191.9z M1261.1,170.7c-7.6-26.3-29.1-39.5-55.1-39.5c-26.7,0-47.5,13.6-55.1,39.5H1261.1z"/>
		<path class="st1" d="M1325,232h48c0.4,13.2,12,22,35.2,22c24.4,0,34.8-10,34.8-22c0-15.2-17.6-17.2-38.8-20
			c-30.4-4-75.2-9.2-75.2-57.6c0-40.4,30.8-66.8,78.4-66.8c48.4,0,78,27.2,79.2,62h-47.2c-1.2-12-12.4-20.4-31.2-20.4
			c-20.8,0-31.2,10-31.2,21.6c0,15.2,18,17.6,39.2,20.4c26.4,3.6,74.8,8.8,74.8,58c0,40-32.4,66.4-82.8,66.4S1326.2,268.8,1325,232z
			"/>
	</g>
</g>
</svg>
