<?xml version="1.0" encoding="utf-8"?>
<!-- Generator: Adobe Illustrator 27.1.1, SVG Export Plug-In . SVG Version: 6.00 Build 0)  -->
<svg version="1.1" id="Layer_1" xmlns="http://www.w3.org/2000/svg" xmlns:xlink="http://www.w3.org/1999/xlink" x="0px" y="0px"
	 viewBox="0 0 1495.7 300" style="enable-background:new 0 0 1495.7 300;" xml:space="preserve">
<style type="text/css">
	.st0{fill:#FFFFFF;}
</style>
<path class="st0" d="M174.5,193.6c38.1-12.6,59.4-43.3,59.4-88c0-54.2-31.6-93.6-103.6-93.6H11.5v51.8H67v-0.2h64.1
	c35.1,0,46.8,17.8,46.8,42s-11.7,42.5-46.8,42.5H67v-0.2H11.5v147.5H67v-95.8h51.1l60.2,95.8h65.9L174.5,193.6z"/>
<path class="st0" d="M239.6,195.2c0-58.2,42.7-100.9,103.2-100.9S445.3,137,445.3,195.2v16.3H288.2c6.2,27.9,27.6,42.7,54.7,42.7
	c20.6,0,35.7-5.8,45.4-18.2h49.3c-14.4,36.5-49.3,60.2-94.7,60.2C282.3,296.1,239.6,253.4,239.6,195.2z M396.4,174.6
	c-7.4-25.6-28.3-38.4-53.6-38.4c-26,0-46.2,13.2-53.6,38.4H396.4z"/>
<path class="st0" d="M466.1,192.4V12h46.8v113.2c13.8-21.6,36.9-33.4,64.8-33.4c47.2,0,96.7,33.8,96.7,100.2
	c0,61.7-43.2,104.1-104.9,104.1C508.6,296.1,466.1,255.3,466.1,192.4z M627.3,194c0-34.2-23.2-58.6-57.4-58.6s-57,24.4-57,58.6
	s22.8,58.6,57,58.6S627.3,228.2,627.3,194z"/>
<path class="st0" d="M693.4,196.2c0-61.5,43.1-103.9,104.7-103.9c60.8,0,103.1,41.2,103.1,103.5V291h-42.7v-38
	c-11.8,28.6-38,43.1-68.6,43.1C742.7,296.1,693.4,262.4,693.4,196.2z M854.5,194.2c0-34.1-22.7-58.4-56.8-58.4s-57.2,24.3-57.2,58.4
	s23.1,58.4,57.2,58.4C831.7,252.6,854.5,228.3,854.5,194.2z"/>
<path class="st0" d="M919.9,212V12.7h49.5v72.8h106.1v44.9H969.4V212c0,27.5,14.1,38.3,34.5,38.3s34.5-10.4,34.5-38.3v-5.4h49.5v5.4
	c0,57-34.1,84.4-84,84.4S919.9,269,919.9,212z"/>
<path class="st0" d="M1103.2,194c0-59,43.2-102.2,104.5-102.2S1311.5,135,1311.5,194v16.5h-159.2c6.3,28.3,27.9,43.2,55.4,43.2
	c20.8,0,36.2-5.9,46-18.5h49.9c-14.5,36.9-49.9,60.9-95.9,60.9C1146.4,296.1,1103.2,252.9,1103.2,194z M1262,173.1
	c-7.5-25.9-28.7-38.9-54.2-38.9c-26.3,0-46.8,13.4-54.2,38.9H1262z"/>
<path class="st0" d="M1321.9,233.5h47.3c0.4,13,11.8,21.7,34.7,21.7c24,0,34.3-9.9,34.3-21.7c0-15-17.3-16.9-38.2-19.7
	c-29.9-3.9-74.1-9.1-74.1-56.7c0-39.8,30.3-65.8,77.2-65.8c47.7,0,76.8,26.8,78,61.1h-46.5c-1.2-11.8-12.2-20.1-30.7-20.1
	c-20.5,0-30.7,9.8-30.7,21.3c0,15,17.7,17.3,38.6,20.1c26,3.5,73.7,8.7,73.7,57.1c0,39.4-31.9,65.4-81.6,65.4
	S1323.1,269.8,1321.9,233.5z"/>
</svg>
