<svg xmlns="http://www.w3.org/2000/svg" version="1.1" xmlns:xlink="http://www.w3.org/1999/xlink" xmlns:svgjs="http://svgjs.com/svgjs" width="512" height="512" x="0" y="0" viewBox="0 0 60 60" style="enable-background:new 0 0 512 512" xml:space="preserve" class=""><g><g id="Page-1" fill="none" fill-rule="evenodd"><g id="006---Get-Points-Cards" fill-rule="nonzero"><g id="Icons_copy_2" transform="translate(1)"><path id="Shape" d="m50 54.76v.24c0 2.209139-1.790861 4-4 4h-42c-2.209139 0-4-1.790861-4-4v-3h34.02l13.78 2.91c.732852.1578211 1.4953517.1058324 2.2-.15z" fill="#7facfa" data-original="#7facfa" class=""></path><path id="Shape" d="m34.02 52h-34.02v-23c0-2.209139 1.790861-4 4-4h3.1l-2.86 13.56-.62 2.93c-.21907479 1.0383469-.01655773 2.1211927.56297327 3.010182s1.48857242 1.5112527 2.52702673 1.729818z" fill="#e8edfc" data-original="#e8edfc" class=""></path><path id="Shape" d="m57.91 26.39-4.75 22.5-48.92-10.33 2.86-13.56 1.89-8.95v-.02l3.38 3.43c.5317274.5484418.7727614 1.3160424.65 2.07l-1.12 6.75c-.1802227.8387118.1368654 1.7064231.8153927 2.2313216s1.5980705.6138264 2.3646073.2286784l5.91-3.24c.6304265-.3399448 1.3895735-.3399448 2.02 0l5.91 3.24c.7665368.385148 1.68608.2962201 2.3646073-.2286784s.9956154-1.3926098.8153927-2.2313216l-1.12-6.75c-.1227614-.7539576.1182726-1.5215582.65-2.07l2.21-2.24 20.99 4.43c1.0378223.21864 1.9459344.8413839 2.5238187 1.7307254.5778844.8893414.7780077 1.9721287.5561813 3.0092746z" fill="#e8edfc" data-original="#e8edfc" class=""></path><path id="Shape" d="m54.83 21.65-20.99-4.43-.517.524 18.507 3.906c1.0378223.21864 1.9459344.8413839 2.5238187 1.7307254.5778844.8893414.7780077 1.9721287.5561813 3.0092746l-4.622 21.894 2.872.606 4.75-22.5c.2218264-1.0371459.0217031-2.1199332-.5561813-3.0092746-.5778843-.8893415-1.4859964-1.5120854-2.5238187-1.7307254z" fill="#cad9fc" data-original="#cad9fc" class=""></path><path id="Shape" d="m53.16 48.89-.62 2.94c-.2171721 1.0386342-.8396057 1.9477661-1.7293606 2.5259191s-1.973348.7775784-3.0106394.5540809l-13.78-2.91-27.31-5.77c-1.03845431-.2185653-1.94749573-.8408287-2.52702673-1.729818s-.78204806-1.9718351-.56297327-3.010182l.62-2.93z" fill="#a4c2f7" data-original="#a4c2f7" class=""></path><rect id="Rectangle-path" fill="#a4c2f7" height="8" rx="2" transform="matrix(-.978 -.207 .207 -.978 87.134 67.531)" width="10" x="42.095" y="25.214" data-original="#a4c2f7" class=""></rect><path id="Shape" d="m50.857 25.919-5.87-1.24c-.5338497-.1129213-1.090647-.0015619-1.54.308l4.41.932c.5190427.109509.9733185.4207352 1.2628793.8652035s.390684.9857652.2811207 1.5047965l-.827 3.911c-.1070015.5035842-.4048164.9461853-.831 1.235l1.461.308c1.0805143.2282044 2.1414916-.46255 2.37-1.543l.827-3.914c.226284-1.0798087-.4645711-2.138911-1.544-2.367z" fill="#7facfa" data-original="#7facfa" class=""></path><path id="Shape" d="m36.32 14.7-2.48 2.52-2.21 2.24c-.5317274.5484418-.7727614 1.3160424-.65 2.07l1.12 6.75c.1802227.8387118-.1368654 1.7064231-.8153927 2.2313216s-1.5980705.6138264-2.3646073.2286784l-5.91-3.24c-.6304265-.3399448-1.3895735-.3399448-2.02 0l-5.91 3.24c-.7665368.385148-1.68608.2962201-2.3646073-.2286784s-.9956154-1.3926098-.8153927-2.2313216l1.12-6.75c.1227614-.7539576-.1182726-1.5215582-.65-2.07l-3.38-3.43-1.31-1.33c-.61025941-.6141315-.83322833-1.5141646-.58023153-2.3421541.25299679-.8279895.94093941-1.4496885 1.79023153-1.6178459l6.54-.99c.7249585-.11895288 1.3453703-.58613046 1.66-1.25l2.95-6.22c.3404386-.77898554 1.1098724-1.28242484 1.96-1.28242484s1.6195614.5034393 1.96 1.28242484l2.95 6.22c.3146297.66386954.9350415 1.13104712 1.66 1.25l6.54.99c.8492921.1681574 1.5372347.7898564 1.7902315 1.6178459s.0300279 1.7280226-.5802315 2.3421541z" fill="#e8edfc" data-original="#e8edfc" class=""></path><path id="Shape" d="m35.11 10.74-6.54-.99c-.7249585-.11895288-1.3453703-.58613046-1.66-1.25l-2.95-6.22c-.2816902-.64677571-.8663877-1.11127422-1.5601123-1.23939273-.6937246-.1281185-1.4057628.09689616-1.8998877.60039273.1889223.18497655.3445352.40114322.46.639l2.95 6.22c.3146297.66386954.9350415 1.13104712 1.66 1.25l6.54.99c.8492921.1681574 1.5372347.7898564 1.7902315 1.6178459s.0300279 1.7280226-.5802315 2.3421541l-2.48 2.52-2.21 2.24c-.5317274.5484418-.7727614 1.3160424-.65 2.07l1.12 6.75c.1387933.7974634-.1440474 1.6100633-.748 2.149l.568.311c.7665368.385148 1.68608.2962201 2.3646073-.2286784s.9956154-1.3926098.8153927-2.2313216l-1.12-6.75c-.1227614-.7539576.1182726-1.5215582.65-2.07l2.21-2.24 2.48-2.52c.6102594-.6141315.8332283-1.5141646.5802315-2.3421541s-.9409394-1.4496885-1.7902315-1.6178459z" fill="#cad9fc" data-original="#cad9fc" class=""></path></g><g id="Icons" fill="#fff" transform="translate(1 25)"><path id="Shape" d="m4 34h3c-2.209139 0-4-1.790861-4-4v-26c0-2.209139 1.790861-4 4-4h-3c-2.209139 0-4 1.790861-4 4v26c0 2.209139 1.790861 4 4 4z" fill="#ffffff" data-original="#ffffff" class=""></path></g><g id="Icons_copy"><path id="Rectangle-path" d="m0 29h2v8h-2z" fill="#ffffff" data-original="#ffffff" class=""></path><g fill="#428dff"><circle id="Oval" cx="1" cy="33" r="1" fill="#7d5dee" data-original="#428dff" class=""></circle><path id="Shape" d="m5 60h42c2.5948597-.0082493 4.750529-2.003515 4.959-4.59 1.3118188-.6884631 2.2498064-1.9243351 2.56-3.373l5.37-25.437c.2769177-1.2971962.0262949-2.6512675-.6965645-3.7634166s-1.8585398-1.8909628-3.1564355-2.1645834l-19.2-4.051 1.2-1.215c.8948274-.9104526 1.1993839-2.2478694.787-3.456-.3678145-1.1585922-1.3583404-2.01015811-2.559-2.2l-6.546-.989c-.3981719-.06817187-.7359142-.33086035-.9-.7l-2.951-6.21c-.5089962-1.1266643-1.6306952-1.85076759-2.867-1.85076759s-2.3580038.72410329-2.867 1.85076759l-2.951 6.215c-.1640858.36913965-.5018281.63182813-.9.7l-6.546.989c-1.20065959.18984189-2.19118555 1.0414078-2.559 2.2-.41238388 1.2081306-.10782744 2.5455474.787 3.456l.938.951-1.612 7.638h-2.29c-2.76005315.0033061-4.99669388 2.2399468-5 5 0 .5522847.44771525 1 1 1s1-.4477153 1-1c0-1.6568542 1.34314575-3 3-3h1.868l-2.606 12.345v.005l-.618 2.928c-.27687998 1.2978679-.02590605 2.6525683.69753129 3.7651159.72343735 1.1125476 1.85986419 1.8914796 3.15846871 2.1648841l17.952 3.792h-23.452v-14c0-.5522847-.44771525-1-1-1s-1 .4477153-1 1v18c.00330612 2.7600532 2.23994685 4.9966939 5 5zm4.075-47.42c.13085989-.44434.50409322-.7748516.961-.851l6.546-.989c1.0547435-.1660247 1.9571935-.84717564 2.406-1.816l2.951-6.216c.1781714-.428663.5967834-.70800113 1.061-.70800113s.8828286.27933813 1.061.70800113l2.951 6.216c.4488065.96882436 1.3512565 1.6499753 2.406 1.816l6.546.989c.4569068.0761484.8301401.40666.961.851.1715291.4946713.0501082 1.0437724-.314 1.42l-4.7 4.759c-.7543486.7758421-1.0928453 1.8652737-.911 2.932l1.113 6.753c.0962197.5127749-.1107339 1.0352158-.532 1.343-.3436225.2537159-.8043489.2815319-1.176.071l-5.915-3.233c-.9281923-.5087506-2.0518077-.5087506-2.98 0l-5.91 3.233c-.3717712.2100125-.8321958.1822147-1.176-.071-.4212661-.3077842-.6282197-.8302251-.532-1.343l1.108-6.752c.1807162-1.0678579-.1596776-2.1577869-.916-2.933l-4.695-4.759c-.36410816-.3762276-.4855291-.9253287-.314-1.42zm3.586 7.584c.3069186.3184569.4432864.7643463.367 1.2l-1.113 6.753c-.2250182 1.2677253.2991351 2.5518425 1.347 3.3.9672663.6960801 2.2486015.7739019 3.293.2l5.914-3.233c.3305552-.1822029.7314448-.1822029 1.062 0l5.914 3.233c1.0442873.5743969 2.325904.496558 3.293-.2 1.0478649-.7481575 1.5720182-2.0322747 1.347-3.3l-1.113-6.754c-.0764531-.435664.0599375-.8816279.367-1.2l1.828-1.853 20.459 4.318c.7779332.1643378 1.4584185.6316578 1.891113 1.2987128.4326945.6670551.5819846 1.4789421.414887 2.2562872l-4.544 21.523-46.963-9.922 4.162-19.721zm-6.644 23.788c-.43469559-.6646441-.58489179-1.4757756-.417-2.252l.412-1.956 46.964 9.922-.413 1.959c-.3448586 1.6188457-1.9356602 2.6525312-3.555 2.31l-41.09-8.68c-.78188007-.163899-1.46609745-.6328813-1.901-1.303zm-4.017 9.048h32.919l13.673 2.888c.3418684.07292.6904413.1097883 1.04.11.064 0 .126-.014.189-.016-.4150103 1.2045006-1.5470136 2.0142782-2.821 2.018h-42c-1.65685425 0-3-1.3431458-3-3z" fill="#7d5dee" data-original="#428dff" class=""></path><path id="Shape" d="m44.126 33.484 5.874 1.241c.7788414.1649378 1.5913044.0135388 2.2584628-.4208551.6671584-.4343938 1.1342963-1.1161563 1.2985372-1.8951449l.826-3.913c.1646673-.778552.0132607-1.5906302-.4209021-2.2575343-.4341629-.6669042-1.115506-1.1339871-1.8940979-1.2984657l-5.87-1.24c-.7786942-.1646413-1.5908983-.0130994-2.2578287.4212681-.6669305.4343675-1.133919 1.1159556-1.2981713 1.8947319l-.826 3.913c-.3423314 1.6206122.6935282 3.2120042 2.314 3.555zm-.357-3.142.826-3.913c.0973729-.462546.5053159-.7937391.978-.794.0695621.000392.1389094.0077622.207.022l5.87 1.24c.2597337.0547432.487046.2105056.6318527.4329677.1448068.2224622.1952255.4933695.1401473.7530323l-.822 3.917c-.0547432.2597337-.2105056.487046-.4329677.6318527-.2224622.1448068-.4933695.1952255-.7530323.1401473l-5.87-1.241c-.5400217-.1144873-.885127-.644902-.771-1.185z" fill="#7d5dee" data-original="#428dff" class=""></path><path id="Shape" d="m33.309 36.31 17.611 3.72c.5404106.1143229 1.071177-.2310894 1.1854999-.7715.114323-.5404106-.2310893-1.071177-.7714999-1.1855l-17.611-3.72c-.5404106-.1143229-1.0711771.2310894-1.1855.7715s.2310894 1.0711771.7715 1.1855z" fill="#7d5dee" data-original="#428dff" class=""></path><path id="Shape" d="m50.507 41.987-8.807-1.861c-.5404106-.1143229-1.0711771.2310894-1.1855.7715s.2310894 1.0711771.7715 1.1855l8.806 1.861c.0684681.0138627.1381427.0208971.208.021.5111895-.0013236.9390795-.38797.9920314-.8964113s-.2860847-.9749597-.7860314-1.0815887z" fill="#7d5dee" data-original="#428dff" class=""></path></g></g></g></g></g></svg>